<?xml version="1.0" encoding="UTF-8"?>
<svg id="Layer_2" data-name="Layer 2" xmlns="http://www.w3.org/2000/svg" viewBox="0 0 1041.35 1080">
  <defs>
    <style>
      .cls-1 {
        fill: currentColor;
        stroke-width: 0px;
      }
    </style>
  </defs>
  <g id="Layer_1-2" data-name="Layer 1">
    <g>
      <path class="cls-1" d="M143.67,846.53c3.53,2.72,8.43,7.15,14.25,12.6,11.64,10.9,27.1,25.88,46.13,40.96,38.07,30.17,91.01,61.12,157.99,61.12s130.52-31.35,183.99-62.2c26.73-15.43,51.01-30.83,71.65-42.35,20.64-11.53,38.01-18.75,48.07-19.35l-1.33-22.32c-17.64,1.05-36.12,10.14-57.64,22.15-21.52,12.01-45.71,27.38-71.93,42.51-52.44,30.26-112.81,59.21-172.8,59.21s-108.09-27.75-144.1-56.28c-18-14.27-32.86-28.64-44.73-39.75-5.94-5.56-11.08-10.3-15.89-14-4.8-3.7-8.71-7.37-16.75-7.37l-.39,16.89c-.58,5.65-1.17,5.48-.93,5.63.37.25,2.24.89,4.42,2.57Z"/>
      <path class="cls-1" d="M62.18,780.92c-6.48,91.82-21.23,170.41-59.17,252.81-9.96,21.62,6.09,46.27,29.9,46.27h69.49c15.47,0,28.79-10.85,32.02-25.98,8.07-37.71,13.51-74.68,15.39-110.18,5.98,4.34,26.51,18.19,35.66,23.4.02.03.04.03.06.03,26.77,15.76,46.87,38.81,72.91,59.73,26.09,20.97,58.68,39.08,107.92,41.95,57.47,3.33,101.28-14.48,137.17-35,35.83-20.49,64.46-43.17,91.58-52.02.04-.03.08-.03.12-.04,57.31-17.92,102.88-49.64,128.81-86.64h0c12.58,49.57,29.87,105.37,49.7,162.7,4.56,13.19,16.98,22.05,30.94,22.05h203.99c25.96,0,41.41-28.68,27.42-50.54-50.39-78.75-86.02-164.23-84.86-270.78C954.15,493.12,980.43.64,513.12,0h.01c-19-.04-38.81.76-59.47,2.41C-68.57,44.47,69.93,596.17,62.18,780.92ZM430.15,599.47c-.38-34.69,5.34-64.42,18.68-94.66,13.34-30.24,29.86-51.97,53.11-69.63,23.25-17.66,46.12-25.79,73.19-26.05h1.27c26.52,0,49.16,7.77,72.43,24.66,23.63,17.15,40.66,38.63,54.38,68.61,13.47,29.22,19.95,57.81,20.58,91.74,0,.89,0,1.65.25,2.54.25,34.81-5.72,64.42-18.93,94.66-7.54,17.26-16.2,31.74-26.56,44.28-3.52-1.69-7.17-3.31-10.96-4.87-26.27-11.25-46.42-18.41-63.22-24.24,6.09-7.32,11.16-16,15.62-26.85,6.73-16.39,10.04-32.4,10.67-51.46,0-.76.25-1.4.25-2.29.38-18.3-2.03-33.93-7.37-49.94-5.59-16.77-12.71-28.84-23-38.88-10.29-10.04-20.58-14.61-32.91-14.99-.58-.03-1.15-.03-1.72-.03-11.59.03-21.66,4.01-32.08,12.73-10.93,9.15-19.06,20.84-25.79,37.1-6.73,16.26-10.04,32.4-10.67,51.59-.13.76-.13,1.4-.13,2.16-.22,10.55.45,20.21,2.08,29.59-23.72-11.82-46.08-19.88-67.06-24.87-1.2-9.07-1.89-18.43-2.11-28.22v-2.67ZM122.02,524.76c8.26-26.68,19.31-46,35.32-61.88,16.01-15.88,32.15-23.89,51.59-24.9,1.52-.08,3.02-.12,4.51-.11h0c17.59.04,33.33,5.92,49.61,18.92,17.66,14.1,31,32.15,42.18,57.56,11.18,25.41,17.15,50.82,18.81,80.81v.25c.8,12.59.7,24.45-.29,35.93-3.48.99-6.89,2.06-10.23,3.21-18.97,6.53-35.68,15.43-50.25,25.05,1.42-10.06,1.64-20.27.54-31.66-.13-.64-.13-1.14-.13-1.78-1.52-15.12-4.7-27.83-10.04-40.66-5.72-13.34-12.07-22.74-20.46-29.99-7.6-6.56-14.78-9.58-22.68-9.52-.82,0-1.64.05-2.48.11-8.89.76-16.26,5.08-23.25,13.6-6.99,8.51-11.56,19.06-14.87,33.04-3.3,13.98-4.19,27.7-2.8,43.46,0,.63.13,1.14.13,1.78,1.52,15.25,4.57,27.95,10.04,40.79,5.59,13.21,12.07,22.62,20.46,29.86,1.4,1.21,2.79,2.3,4.18,3.28-8.72,6.71-12.89,9.81-20.04,15.06-4.58,3.36-10.04,7.37-16.39,12.05-13.84-12.96-24.64-29.26-34.08-50.71-11.18-25.41-17.15-50.82-18.93-80.81v-.25c-1.65-29.99,1.27-55.78,9.53-82.46ZM135.59,789.12c27.59-20.68,46.76-34.75,59.53-44.12,12.68-9.31,17.96-12.8,22-16.68.02-.03.04-.04.06-.06l.02-.03c20.73-19.63,53.79-55.38,103.61-72.53,17.15-5.9,36.28-9.71,57.7-9.8h0c40.89-.16,90.09,13.24,149.65,51.54,36.59,23.79,65.06,25.78,130.61,53.86l.08.03.08.03c31.54,12.94,50.05,29.81,59.1,47.57,9.04,17.76,9.27,37.03,1.7,57.29-15.14,40.53-63.47,83.18-131.29,104.36l-.06.03-.06.03c-33.07,10.74-61.9,34.47-95.9,53.91-33.99,19.44-72.46,35.12-124.77,32.09-44.53-2.6-71.15-17.71-95.21-37.05-24.07-19.34-45.04-43.64-75.75-61.68l-.08-.05-.08-.05c-49.47-27.96-76.48-60.3-84.95-88.34-8.48-28.04-.52-51.97,24.02-70.36Z"/>
    </g>
  </g>
</svg>