<?xml version="1.0" encoding="UTF-8"?>
<svg id="Layer_2" data-name="Layer 2" xmlns="http://www.w3.org/2000/svg" viewBox="0 0 2229.86 355.62">
  <g>
    <path fill="currentColor" d="M76.01,69.21V0H0v355.6h76.01v-190.02c0-20.8,5.65-37.55,16.97-50.22,11.3-12.66,26.13-21.82,44.45-27.48,18.32-5.65,37.89-8.48,58.7-8.48V6.79c-24.43,0-47.84,5.77-70.24,17.31-19.95,10.28-36.58,25.33-49.88,45.12Z"/>
    <path fill="currentColor" d="M523.56,90.94c-14.25-29.4-33.59-51.92-58.02-67.52S413.72,0,383.42,0c-33.49,0-63.23,7.58-89.24,22.73-26.02,15.16-46.49,36.08-61.42,62.77-14.93,26.7-22.39,57.46-22.39,92.29s7.35,65.6,22.05,92.29c14.7,26.7,34.83,47.62,60.4,62.77,25.55,15.15,54.85,22.73,87.88,22.73,25.79,0,48.74-3.63,68.88-10.86,20.13-7.23,37.55-17.64,52.25-31.22,14.7-13.57,26.81-29.4,36.31-47.5l-67.18-28.5c-7.7,14.93-18.32,27.04-31.9,36.31-13.57,9.28-30.77,13.91-51.58,13.91-18.1,0-34.61-4.07-49.54-12.22-14.93-8.14-26.92-19.79-35.97-34.95-7.65-12.79-12.04-27.62-13.23-44.45h256.18c0-40.72-7.13-75.77-21.38-105.19ZM306.73,101.46c9.05-11.98,20.36-21.04,33.93-27.15,13.57-6.11,27.15-9.16,40.72-9.16s26.57,3.05,39.02,9.16c12.44,6.11,22.73,15.16,30.88,27.15,6.71,9.88,10.65,21.98,11.83,36.31h-169.52c1.31-14.32,5.68-26.43,13.14-36.31Z"/>
    <path fill="currentColor" d="M800.77,172.03c-14.03-11.54-32.13-20.02-54.29-25.45l-40.04-9.5c-14.48-3.62-25.57-8.25-33.25-13.91-7.7-5.65-11.54-11.88-11.54-18.66,0-11.76,4.29-20.92,12.89-27.48,8.59-6.55,20.58-9.84,35.97-9.84s29.4,3.05,42.08,9.16c12.66,6.11,21.26,14.82,25.79,26.13l63.11-28.5c-4.98-14.93-13.81-27.93-26.47-39.02-12.67-11.08-27.72-19.68-45.13-25.79-17.42-6.11-36.54-9.16-57.34-9.16-41.17,0-72.73,9.28-94.67,27.82-21.95,18.56-32.91,44.79-32.91,78.72,0,23.07,9.04,43.55,27.15,61.42,18.09,17.88,43.2,30.88,75.33,39.02l31.9,8.82c14.93,3.63,26.47,8.26,34.61,13.91,8.14,5.66,12.22,13.69,12.22,24.09s-5.32,19.34-15.95,25.45c-10.64,6.11-24.77,9.16-42.41,9.16-16.29,0-31.11-4.29-44.45-12.89-13.35-8.59-23.41-19.22-30.2-31.9l-65.83,29.18c7.23,16.74,17.64,31.33,31.22,43.77,13.57,12.45,29.86,22.06,48.86,28.84,19,6.79,39.81,10.18,62.43,10.18,25.33,0,47.95-4.19,67.86-12.55,19.9-8.37,35.63-20.24,47.16-35.63,11.54-15.38,17.31-33.25,17.31-53.61,0-14.47-3.39-28.84-10.18-43.09-6.79-14.25-17.2-27.15-31.22-38.68Z"/>
    <path fill="currentColor" d="M1108.86,185.27c0,32.13-7.02,56.78-21.04,73.97-14.03,17.2-33.93,25.57-59.72,25.11-14.48,0-27.26-2.94-38.34-8.82-11.09-5.87-19.8-16.29-26.13-31.22-6.34-14.93-9.5-35.73-9.5-62.43V0h-76.01v199.52c0,36.2,5.2,65.83,15.61,88.9,10.4,23.07,25.22,40.04,44.45,50.9,19.22,10.86,42.18,16.29,68.88,16.29s50.32-6.68,69.56-20.02c13.05-9.06,24.12-20.94,33.21-35.63l3.1,55.65h71.26V0h-75.33v185.27Z"/>
    <path fill="currentColor" d="M1624.94,0c-24.43,0-45.7,6.34-63.79,19-18.1,12.67-32.13,30.99-42.08,54.97-8.6-24.88-22.39-43.43-41.4-55.65-19-12.22-42.08-18.32-69.22-18.32-20.81,0-39.36,4.53-55.65,13.57-16.29,9.06-29.64,22.39-40.04,40.04l-3.39-53.61h-71.26v355.6h76.01v-185.27c0-32.12,6.45-56.77,19.34-73.97,12.89-17.19,31.1-25.55,54.63-25.11,13.12,0,24.65,2.95,34.61,8.82,9.95,5.88,17.75,16.18,23.41,30.88,5.65,14.71,8.48,35.63,8.48,62.77v181.87h76.01v-185.27c0-32.12,6.45-56.77,19.34-73.97,12.89-17.19,31.1-25.55,54.63-25.11,13.12,0,24.65,2.95,34.61,8.82,9.95,5.88,17.87,16.18,23.75,30.88,5.88,14.71,8.82,35.63,8.82,62.77v181.87h75.33v-202.23c.45-52.02-9.96-90.6-31.22-115.71-21.27-25.11-51.58-37.66-90.94-37.66Z"/>
    <path fill="currentColor" d="M2021.25,19.34c-22.17-12.89-49.77-19.34-82.79-19.34-25.79,0-47.84,3.85-66.17,11.54-18.32,7.7-33.49,17.98-45.47,30.88-11.99,12.89-21.61,26.81-28.84,41.74l66.51,24.43c8.59-14.47,19-25.11,31.22-31.9s26.47-10.18,42.75-10.18c17.65,0,31.78,4.19,42.41,12.55,10.63,8.38,18.32,20.36,23.07,35.97,2.53,8.32,4.38,17.72,5.57,28.16h-85.98c-42.53,0-75.67,9.28-99.42,27.82-23.75,18.56-35.63,45.47-35.63,80.76,0,33.03,11.2,58.6,33.59,76.69,22.4,18.1,53.95,27.15,94.67,27.15s70.34-13.23,88.9-39.7c2.34-3.34,4.54-6.85,6.58-10.51l2.24,50.21h69.9l2.04-194.09c0-33.93-5.32-62.88-15.95-86.86-10.63-23.97-27.04-42.41-49.2-55.31ZM2000.56,249.74c-7.02,12.67-16.86,22.85-29.52,30.54-12.67,7.7-27.6,11.54-44.79,11.54-19,0-33.82-3.73-44.45-11.2-10.63-7.46-15.95-17.75-15.95-30.88,0-15.38,6.11-27.25,18.32-35.63,12.22-8.37,33.48-12.55,63.79-12.55h63.11v5.43c0,15.84-3.51,30.09-10.52,42.75Z"/>
    <path fill="#00d9cb" d="M2215.61,274.19c-9.5-9.5-20.81-14.25-33.93-14.25s-24.32,4.75-33.59,14.25c-9.28,9.5-13.91,20.81-13.91,33.93s4.63,24.32,13.91,33.59c9.27,9.27,20.47,13.91,33.59,13.91s24.43-4.64,33.93-13.91c9.5-9.27,14.25-20.46,14.25-33.59s-4.75-24.43-14.25-33.93Z"/>
  </g>
</svg>